<?xml version="1.0" encoding="UTF-8"?>
<svg width="115px" height="28px" viewBox="0 0 115 28" version="1.1" xmlns="http://www.w3.org/2000/svg" xmlns:xlink="http://www.w3.org/1999/xlink">
    <title>logo</title>
    <defs>
        <polygon id="path-1" points="0.0078547035 0.0278967452 6.39547414 0.0278967452 6.39547414 8.96992503 0.0078547035 8.96992503"></polygon>
        <polygon id="path-3" points="0.0204500902 0.24282278 9.95941092 0.24282278 9.95941092 13.709585 0.0204500902 13.709585"></polygon>
    </defs>
    <g id="부분가이드" stroke="none" stroke-width="1" fill="none" fill-rule="evenodd">
        <g id="Ch1_GUI-Guideline05" transform="translate(-35.000000, -14.000000)">
            <g id="Group-3" transform="translate(-81.000000, -108.000000)">
                <g id="GNB">
                    <g transform="translate(116.000000, 122.000000)">
                        <g id="Group-2">
                            <g id="account">
                                <g id="Group-41">
                                    <g id="Group-33">
                                        <path d="M8.13196941,18.6472376 C8.13196941,18.6205791 8.14484348,18.5424111 8.16837194,18.4100224 C8.19633973,18.2785374 8.2212,18.1199421 8.24827992,17.9360439 C8.27225232,17.7525975 8.29578078,17.563729 8.31664565,17.3730532 C8.33573478,17.1819255 8.34461344,17.0142934 8.34461344,16.8692533 C8.34461344,16.7120135 8.32951971,16.5145601 8.29578078,16.2768931 C8.26381759,16.0396779 8.1892368,15.812855 8.07292629,15.5955207 C7.95661577,15.3777345 7.78969687,15.1933844 7.56817417,15.0415667 C7.34887114,14.8902008 7.050548,14.8151957 6.67720013,14.8151957 C6.24880453,14.8151957 5.89055039,14.9408067 5.60021804,15.1911252 C5.30899783,15.4405401 5.05995127,15.8020108 4.8508587,16.2768931 C4.70968793,16.5796248 4.59071382,16.9419993 4.4930485,17.3631127 C4.39671498,17.7842262 4.31503126,18.2026286 4.25021701,18.6178681 C4.18584669,19.0313003 4.13745796,19.4103928 4.1046069,19.7519826 C4.07219977,20.094928 4.05577424,20.3452465 4.05577424,20.5029382 C4.05577424,20.6222235 4.06642864,20.7939221 4.08640564,21.0166785 C4.1046069,21.241694 4.16675756,21.4639986 4.270194,21.6885623 C4.37318652,21.9126741 4.53611003,22.1074165 4.75496912,22.2714339 C4.97427215,22.4359031 5.29079656,22.517234 5.70676203,22.517234 C6.09520363,22.517234 6.41883097,22.4295773 6.67720013,22.251553 C6.93556928,22.0739805 7.15576018,21.8182399 7.33688495,21.4816203 C7.51712185,21.1454524 7.66894702,20.7374423 7.79369227,20.2566862 C7.91532998,19.7759301 8.0289769,19.2400497 8.13196941,18.6472376 M12.4021634,17.6007797 C12.4021634,18.665763 12.245455,19.6842069 11.9355896,20.651593 C11.6226166,21.6203347 11.1751319,22.4693391 10.5935793,23.2004138 C10.010695,23.9305847 9.30350928,24.5098416 8.47424195,24.9386363 C7.64541856,25.3656236 6.71360265,25.5802469 5.67657456,25.5802469 C4.93698176,25.5802469 4.22757641,25.4582505 3.54791459,25.2138059 C2.86647704,24.9711687 2.26539141,24.6024685 1.7393305,24.1081572 C1.21371353,23.6147496 0.794196598,22.9988938 0.475896452,22.2610416 C0.159372039,21.5231894 0,20.662889 0,19.6742664 C0,18.7001027 0.146497975,17.7385905 0.438606058,16.7897297 C0.728050542,15.8422245 1.16088547,14.9972865 1.73045184,14.2513013 C2.30001821,13.5075752 3.00942355,12.90663 3.85911181,12.4443993 C4.70702433,11.9844277 5.69566369,11.7530864 6.8236981,11.7530864 C7.62632943,11.7530864 8.36769797,11.8918008 9.04824765,12.1678741 C9.72924127,12.4443993 10.3178968,12.8370469 10.8164338,13.3444615 C11.3158587,13.8500687 11.7051882,14.4632135 11.9835344,15.180733 C12.2627684,15.8991561 12.4021634,16.7047841 12.4021634,17.6007797" id="Fill-1" fill="#FEFEFE"></path>
                                        <path d="M16.1848166,22.8999504 L16.7406398,22.8999504 C16.9770349,22.8999504 17.1934656,22.8637078 17.3840336,22.7929904 C17.5759628,22.721389 17.7447515,22.6285725 17.8899462,22.5114468 C18.0360483,22.3952051 18.1549264,22.2687977 18.2479417,22.1335507 C18.3400496,21.9978618 18.4062946,21.8727804 18.4453157,21.7547707 C18.4988562,21.5872589 18.5510355,21.3773167 18.6041223,21.124944 C18.6572091,20.8730133 18.7062123,20.6184307 18.7529468,20.3594283 C18.8001351,20.1004259 18.8346188,19.8489371 18.8609354,19.6031942 C18.8877056,19.3570093 18.9008639,19.1510449 18.9008639,18.9817652 C18.9008639,18.8531479 18.8913355,18.7072933 18.8727324,18.5464113 C18.8532219,18.3842033 18.8078486,18.2321609 18.7434185,18.0907261 C18.6776271,17.9492913 18.5809819,17.8290718 18.4562053,17.7313934 C18.3296137,17.634157 18.1608249,17.5864227 17.9493852,17.5864227 C17.5396641,17.5864227 17.1898358,17.7610063 16.8971778,18.1079635 L16.1848166,22.8999504 Z M17.1181459,15.4613653 L16.9965454,16.225997 C17.2084388,15.9188184 17.5219685,15.6735174 17.9394031,15.4878843 C18.3559302,15.3022511 18.8346188,15.2098765 19.3768301,15.2098765 C20.2498129,15.2098765 20.9712488,15.5603696 21.5393228,16.2626816 C22.1092118,16.9649937 22.3927951,17.9736004 22.3927951,19.2862919 C22.3927951,19.8776661 22.3006872,20.5097027 22.1151103,21.179308 C21.9290797,21.8489133 21.6418665,22.4650385 21.2521096,23.0250318 C20.8632602,23.5850251 20.3695985,24.0530858 19.7747541,24.42612 C19.1794561,24.7991543 18.4729934,24.9861134 17.65219,24.9861134 L15.8472391,24.9861134 L15.3907834,28 L12.0576589,28 L13.9819416,15.4613653 L17.1181459,15.4613653 Z" id="Fill-3" fill="#FEFEFE"></path>
                                        <path d="M29.0025963,19.0728692 C29.0151789,19.0083534 29.0221211,18.9349999 29.0221211,18.8505991 L29.0221211,18.6296547 C29.0221211,18.4992974 29.0117078,18.3614281 28.9934847,18.2129534 C28.9748276,18.0649207 28.9297036,17.9261675 28.860282,17.7975779 C28.7908605,17.6689882 28.7001785,17.5620511 28.5865007,17.4785341 C28.4710874,17.3959009 28.3213971,17.3530377 28.1304878,17.3530377 C28.0680084,17.3530377 27.9755909,17.3658524 27.8558387,17.3919239 C27.7356526,17.4179953 27.6093921,17.4882557 27.4753217,17.6049143 C27.3434207,17.7211311 27.2136892,17.8943515 27.0874287,18.1250176 C26.9611682,18.357893 26.8652797,18.6747273 26.8028003,19.0728692 L29.0025963,19.0728692 Z M26.5745769,20.9080338 C26.5619942,20.9716658 26.5511471,21.0618111 26.536395,21.1784698 C26.5238123,21.2938028 26.5177379,21.3972048 26.5177379,21.4873501 C26.5177379,21.9637063 26.6722009,22.2991 26.9832963,22.4922055 C27.2926562,22.6853109 27.6636277,22.7820846 28.0923059,22.7820846 C28.7509431,22.7820846 29.3761711,22.6945906 29.9701594,22.5213701 C30.5645816,22.3459402 31.1086731,22.1055527 31.6015663,21.7957886 L31.278756,24.152382 C31.1025987,24.2818555 30.8873919,24.4104451 30.6331354,24.5390348 C30.3806144,24.6685082 30.095986,24.7829575 29.7805517,24.8868013 C29.4642497,24.9902033 29.1288567,25.0732785 28.7756745,25.1382361 C28.4220584,25.2027519 28.0549918,25.2345679 27.6753426,25.2345679 C27.0423047,25.2345679 26.4678412,25.130724 25.9484811,24.9252457 C25.4308565,24.7193255 24.9856907,24.4237018 24.6121159,24.037049 C24.2389749,23.6517219 23.948706,23.178017 23.7391396,22.6177019 C23.5308749,22.0569449 23.4263087,21.4299046 23.4263087,20.7334877 C23.4263087,20.0127669 23.5339121,19.3212108 23.7495529,18.6583774 C23.9647597,17.9942184 24.2741196,17.4056224 24.6780664,16.89038 C25.0833148,16.3746957 25.5705674,15.9663903 26.1398243,15.6632545 C26.709515,15.3605607 27.3534001,15.2098765 28.0736489,15.2098765 C28.7943315,15.2098765 29.4078447,15.315488 29.9137544,15.5280365 C30.4187963,15.7392594 30.8296852,16.0441628 31.1464211,16.4356763 C31.4627231,16.8289574 31.6896449,17.311942 31.8297897,17.8850719 C31.967765,18.4577599 32.0389222,19.1046852 32.0389222,19.8258479 C32.0389222,20.0450248 32.0311122,20.2341532 32.0202651,20.3963264 C32.0059469,20.5567321 31.9864221,20.7273012 31.9608229,20.9080338 L26.5745769,20.9080338 Z" id="Fill-5" fill="#FEFEFE"></path>
                                        <path d="M36.9008047,15.5055835 L36.8213941,16.0979003 C37.1485115,15.79497 37.5315772,15.5710453 37.9660793,15.4256749 C38.3987766,15.2812074 38.9190061,15.2098765 39.523158,15.2098765 C40.2987645,15.2098765 40.9114892,15.4324468 41.3572712,15.8793932 C41.804858,16.3263396 42.0295538,16.899695 42.0295538,17.5967508 C42.0295538,17.7010383 42.0218835,17.8441514 42.0083476,18.0211241 C41.9952629,18.1994512 41.9686423,18.3863561 41.9307418,18.5831931 L40.9439753,25.2345679 L37.6100854,25.2345679 L38.4975886,19.1953742 C38.5242092,19.0906352 38.5458667,18.966032 38.5661705,18.821113 C38.5864743,18.6761941 38.5964006,18.5511394 38.5964006,18.445046 C38.5964006,18.3538509 38.5864743,18.2613014 38.5661705,18.1692034 C38.5458667,18.0775568 38.5088686,17.9913277 38.4484082,17.9127735 C38.3893015,17.8346708 38.3116957,17.768306 38.2137861,17.7159365 C38.1140717,17.6631156 37.9787128,17.6360279 37.806807,17.6360279 C37.3483915,17.6360279 36.9860808,17.7935878 36.7234845,18.110062 L35.6379061,25.2345679 L32.3834267,25.2345679 L33.8624484,15.5055835 L36.9008047,15.5055835 Z" id="Fill-7" fill="#FEFEFE"></path>
                                        <polygon id="Fill-9" fill="#FEFEFE" points="51.3456968 20.0179649 47.2341051 20.0179649 46.4266437 24.8888889 42.7185629 24.8888889 44.8495225 12.0987654 52.7091945 12.0987654 52.228322 14.9750847 48.0789286 14.9750847 47.7132194 17.2372744 51.8248111 17.2372744"></polygon>
                                        <path d="M56.6872424,15.5055835 L56.4934636,16.8473256 C56.8291399,16.3344659 57.2322174,15.9322141 57.7049135,15.6432791 C58.1758358,15.3543441 58.6325683,15.2098765 59.0715637,15.2098765 C59.3558021,15.2098765 59.6458051,15.2744355 59.9437898,15.407165 L59.091518,18.7222431 C58.8972958,18.7096022 58.7655972,18.7023788 58.6928747,18.7023788 L58.4902274,18.7023788 C58.2835892,18.7023788 58.0667521,18.7159226 57.8410464,18.740753 C57.6140104,18.7682921 57.3998338,18.8500065 57.2007339,18.9886051 C57.0007471,19.1263007 56.8180541,19.3402932 56.6588629,19.6292282 C56.4956808,19.9186147 56.377285,20.3199635 56.3001283,20.8341776 L55.6411918,25.2345679 L52.36469,25.2345679 L53.8186959,15.5055835 L56.6872424,15.5055835 Z" id="Fill-11" fill="#FEFEFE"></path>
                                        <path d="M62.3221247,22.9544212 C62.738388,22.9544212 63.0630647,22.8395301 63.2896439,22.6075385 L63.6312489,20.5006122 C63.4029335,20.5284512 63.1824311,20.5823617 62.9662694,20.6654368 C62.7501076,20.7493957 62.5595554,20.8589841 62.3872337,20.9942021 C62.2179504,21.129862 62.0812216,21.2946866 61.9796516,21.487792 C61.8789497,21.6808974 61.8285988,21.9058189 61.8285988,22.1634401 C61.8285988,22.4851352 61.8728729,22.6981257 61.9618551,22.800202 C62.0508374,22.903604 62.1693357,22.9544212 62.3221247,22.9544212 L62.3221247,22.9544212 Z M60.4248496,16.2518505 C60.6136656,16.1241447 60.8411129,15.9946712 61.1071915,15.8651978 C61.3719679,15.7374919 61.655843,15.6243683 61.9618551,15.5284784 C62.2652629,15.4321467 62.5756156,15.3534904 62.8911771,15.295603 C63.2080407,15.2377155 63.5166571,15.2098765 63.8218011,15.2098765 C64.2879813,15.2098765 64.7281179,15.247879 65.1391725,15.3238839 C65.5519633,15.402982 65.898777,15.5563174 66.1835202,15.7891929 C66.4678294,16.0207427 66.6770462,16.3526012 66.8094344,16.7834429 C66.9418226,17.2147264 66.9635256,17.7790185 66.8771477,18.4723422 L66.45828,21.9500078 C66.4192147,22.2854014 66.4448242,22.4851352 66.5346746,22.5500929 C66.6227887,22.6128411 66.7178478,22.6468666 66.8185496,22.6468666 C66.9196856,22.6468666 67.0399201,22.6075385 67.1783852,22.529766 L66.6483982,25.0220193 C66.45828,25.0856513 66.2625191,25.1377942 66.0589451,25.1762386 C65.8575414,25.2151248 65.6292259,25.2345679 65.3766032,25.2345679 C64.4780995,25.2345679 63.8456744,24.8037262 63.479328,23.9402753 C63.2010957,24.3397429 62.86904,24.6552516 62.4831609,24.8868013 C62.0972818,25.1179092 61.6389147,25.2345679 61.1071915,25.2345679 C60.7030819,25.2345679 60.3419442,25.1921466 60.0255146,25.1086296 C59.7090851,25.0251126 59.4447427,24.8868013 59.2285809,24.6928121 C59.0150235,24.5001486 58.8496468,24.2389922 58.7359231,23.9115526 C58.6208973,23.5841129 58.5657717,23.1744819 58.5657717,22.6853109 C58.5657717,22.4139911 58.6061392,22.1347173 58.6877425,21.8452801 C58.7706479,21.555401 58.902168,21.2712664 59.0870774,20.9942021 C59.2693825,20.7171378 59.505077,20.4573071 59.788952,20.2116169 C60.0736952,19.9668104 60.4187727,19.7555876 60.8224483,19.5744131 C61.3276938,19.3552362 61.8212198,19.1983657 62.3034602,19.1020339 C62.7830962,19.0048183 63.3139512,18.9438377 63.8964594,18.9177662 L63.9541894,18.4343398 C64.0032381,18.1395999 63.9285798,17.9288189 63.7267421,17.8077413 C63.5236021,17.6848962 63.2896439,17.6239155 63.0239993,17.6239155 C62.4171838,17.6239155 61.8685323,17.7069907 61.3819513,17.8753503 C60.8953703,18.0423843 60.4374373,18.2673058 60.00685,18.5509984 L60.4248496,16.2518505 Z" id="Fill-13" fill="#FEFEFE"></path>
                                        <path d="M72.3834146,15.5055835 L72.2844022,16.234693 C72.547838,15.9069323 72.8708606,15.6518569 73.2557099,15.4753356 C73.6401112,15.29746 74.1266611,15.2098765 74.7135676,15.2098765 C75.3036101,15.2098765 75.7655189,15.3566014 76.1051182,15.6518569 C76.4451655,15.9489182 76.6920247,16.2681011 76.8479357,16.6103085 C76.9397798,16.4649381 77.0535769,16.3146016 77.1906711,16.1565902 C77.3273173,15.9994818 77.4926367,15.8545628 77.6817012,15.7222848 C77.8716618,15.5909096 78.0920877,15.4830104 78.3483552,15.3972329 C78.6014866,15.3105523 78.8998681,15.2690179 79.2394674,15.2690179 C79.9701883,15.2690179 80.5544066,15.5078408 80.9912263,15.9886468 C81.42939,16.4690013 81.6475758,17.1231682 81.6475758,17.9520506 C81.6475758,18.1245087 81.6377194,18.2983212 81.6184545,18.4752939 C81.6000857,18.6527181 81.5826129,18.7944768 81.5687243,18.9005702 L80.6699958,25.2345679 L77.5549115,25.2345679 L78.4169023,19.2554185 C78.4281028,19.162869 78.4428875,19.0504552 78.4554321,18.9195315 C78.4666326,18.7872535 78.4738009,18.6761941 78.4738009,18.5831931 C78.4738009,18.4134438 78.431687,18.2287962 78.3483552,18.0319592 C78.2627834,17.8346708 78.0835753,17.7353493 77.810283,17.7353493 C77.6404834,17.7353493 77.4675476,17.8080346 77.2896836,17.9520506 C77.1131636,18.0965181 76.9711412,18.2689762 76.8689926,18.4662647 L75.9097814,25.2345679 L72.8744447,25.2345679 L73.7355395,19.2743799 C73.7615247,19.1691895 73.7807896,19.0445862 73.7946782,18.9005702 C73.8072228,18.7538453 73.812151,18.6296936 73.812151,18.5254061 C73.812151,18.3272147 73.7807896,18.1710092 73.7153786,18.0604013 C73.6513117,17.9493419 73.5787325,17.8667245 73.500777,17.8139036 C73.4219254,17.7610826 73.345762,17.7294803 73.2740787,17.7159365 C73.2032916,17.7010383 73.1611777,17.6951693 73.147289,17.6951693 C72.9644968,17.6951693 72.7946972,17.7525049 72.6378901,17.8640157 C72.4815311,17.9746237 72.3520532,18.1172853 72.2476645,18.2879376 L71.2293147,25.2345679 L68.2118988,25.2345679 L69.6025534,15.5055835 L72.3834146,15.5055835 Z" id="Fill-15" fill="#FEFEFE"></path>
                                        <path d="M87.5705127,19.0728692 C87.5822293,19.0083534 87.5874367,18.9349999 87.5874367,18.8505991 L87.5874367,18.6296547 C87.5874367,18.4992974 87.5796256,18.3614281 87.5605318,18.2129534 C87.5401362,18.0649207 87.4967411,17.9261675 87.4264411,17.7975779 C87.3570091,17.6689882 87.2671814,17.5620511 87.1517505,17.4785341 C87.0380555,17.3959009 86.8874748,17.3530377 86.6974045,17.3530377 C86.6340477,17.3530377 86.5424842,17.3658524 86.421412,17.3919239 C86.3025096,17.4179953 86.1744943,17.4882557 86.0425733,17.6049143 C85.9093506,17.7211311 85.7804673,17.8943515 85.6550556,18.1250176 C85.5270403,18.357893 85.4311372,18.6747273 85.3695163,19.0728692 L87.5705127,19.0728692 Z M85.1403905,20.9080338 C85.126938,20.9716658 85.1152213,21.0618111 85.1039386,21.1784698 C85.092222,21.2938028 85.0852788,21.3972048 85.0852788,21.4873501 C85.0852788,21.9637063 85.2397651,22.2991 85.5491717,22.4922055 C85.8585784,22.6853109 86.229606,22.7820846 86.6592168,22.7820846 C87.3170856,22.7820846 87.9415403,22.6945906 88.5360523,22.5213701 C89.1318662,22.3459402 89.6751721,22.1055527 90.1672718,21.7957886 L89.8452806,24.152382 C89.6690968,24.2818555 89.4538574,24.4104451 89.2012983,24.5390348 C88.9470033,24.6685082 88.6640677,24.7829575 88.3468499,24.8868013 C88.030934,24.9902033 87.6967922,25.0732785 87.3418208,25.1382361 C86.9881512,25.2027519 86.6205953,25.2345679 86.2421905,25.2345679 C85.6086229,25.2345679 85.0336387,25.130724 84.5142,24.9252457 C83.9964972,24.7193255 83.5512641,24.4237018 83.1785007,24.037049 C82.8040015,23.6517219 82.5132548,23.178017 82.3053925,22.6177019 C82.0962285,22.0569449 81.9920804,21.4299046 81.9920804,20.7334877 C81.9920804,20.0127669 82.0988322,19.3212108 82.3158073,18.6583774 C82.5301788,17.9942184 82.8404534,17.4056224 83.2444612,16.89038 C83.648903,16.3746957 84.1344935,15.9663903 84.7055722,15.6632545 C85.2736132,15.3605607 85.9184635,15.2098765 86.6396891,15.2098765 C87.3613486,15.2098765 87.9740865,15.315488 88.4809406,15.5280365 C88.9860589,15.7392594 89.3970099,16.0441628 89.7129258,16.4356763 C90.0284077,16.8289574 90.2579675,17.311942 90.3963976,17.8850719 C90.5343939,18.4577599 90.6046938,19.1046852 90.6046938,19.8258479 C90.6046938,20.0450248 90.5973167,20.2341532 90.5851661,20.3963264 C90.5717136,20.5567321 90.5530537,20.7273012 90.5283186,20.9080338 L85.1403905,20.9080338 Z" id="Fill-17" fill="#FEFEFE"></path>
                                        <g id="Group-21">
                                            <mask id="mask-2" fill="white">
                                                <use xlink:href="#path-1"></use>
                                            </mask>
                                            <g id="Clip-20"></g>
                                            <polygon id="Fill-19" fill="#FEFEFE" mask="url(#mask-2)" points="3.14493601 8.96992503 0.721759977 8.96992503 1.80090896 2.07178361 0.0078547035 2.07178361 0.331643037 0.0278038159 6.39547414 0.0278038159 6.06906757 2.07178361 4.22408499 2.07178361"></polygon>
                                        </g>
                                        <path d="M8.52880989,2.26868854 L8.46638067,2.74646032 C8.63445935,2.53251924 8.84270228,2.36487214 9.08718036,2.24756411 C9.33471442,2.13295282 9.64817024,2.07407407 10.0227456,2.07407407 C10.40125,2.07407407 10.6981163,2.17025767 10.9155271,2.36487214 C11.1338111,2.55903715 11.2922853,2.76803421 11.3922594,2.99096441 C11.4507595,2.8970281 11.5241029,2.79904668 11.6135994,2.69432342 C11.700913,2.59094853 11.8048162,2.49656276 11.9257455,2.41071665 C12.0479845,2.32576946 12.1903057,2.25475541 12.3531456,2.19812394 C12.5168586,2.14149248 12.7076388,2.11227784 12.9250496,2.11227784 C13.3934871,2.11227784 13.7676259,2.27048637 14.047466,2.58465615 C14.330362,2.89972483 14.4691907,3.32850591 14.4691907,3.87234772 C14.4691907,3.98291391 14.4635153,4.0975252 14.4504182,4.21528269 C14.4377578,4.33079289 14.4277167,4.42383029 14.4189853,4.49349598 L13.8409693,8.64197531 L11.8449804,8.64197531 L12.3963658,4.72496585 C12.4050972,4.66428928 12.4133919,4.59192686 12.4221233,4.50518184 C12.4321644,4.41978519 12.43653,4.34472603 12.43653,4.28584729 C12.43653,4.17303382 12.4068434,4.05213014 12.3531456,3.9226868 C12.2994477,3.79504128 12.1833206,3.73031961 12.0078203,3.73031961 C11.9004245,3.73031961 11.7886631,3.77616413 11.6734092,3.87234772 C11.5633941,3.96673349 11.4712782,4.07954696 11.4040467,4.20629357 L10.7884859,8.64197531 L8.84444855,8.64197531 L9.39758021,4.73710116 C9.41286009,4.66878384 9.42421086,4.5874323 9.43250565,4.49349598 C9.44298328,4.39641348 9.44734896,4.31551139 9.44734896,4.24674461 C9.44734896,4.11640236 9.42421086,4.01617366 9.38491974,3.94381124 C9.3403898,3.87010044 9.29629643,3.81526681 9.24609111,3.78020923 C9.19544922,3.74694949 9.14611704,3.72582505 9.10115054,3.71548756 C9.05574746,3.7069479 9.02606084,3.70290279 9.01820262,3.70290279 C8.90207553,3.70290279 8.79249696,3.7406571 8.69339603,3.81391844 C8.59211225,3.88762923 8.51003747,3.97886881 8.44193286,4.09213173 L7.78882713,8.64197531 L5.85657717,8.64197531 L6.74761245,2.26868854 L8.52880989,2.26868854 Z" id="Fill-22" fill="#FEFEFE"></path>
                                        <path d="M17.0234261,7.14793066 C17.3073297,7.14793066 17.5262001,7.07270049 17.6804858,6.92136028 L17.9114659,5.54214062 C17.7576287,5.55885843 17.607828,5.59317395 17.4616154,5.6486067 C17.3149543,5.70359951 17.1835424,5.77531013 17.0682766,5.86373857 C16.9534594,5.95304689 16.8588248,6.06039286 16.7897551,6.18665635 C16.7211338,6.31379972 16.6879445,6.46118045 16.6879445,6.63099825 C16.6879445,6.84173069 16.7166488,6.98075252 16.7771969,7.04850366 C16.8386421,7.11581486 16.918476,7.14793066 17.0234261,7.14793066 L17.0234261,7.14793066 Z M15.7321805,2.75774468 C15.8617984,2.67327573 16.0151871,2.58748694 16.1963831,2.50345793 C16.3780276,2.41986886 16.5704362,2.34595852 16.7771969,2.28216687 C16.9839577,2.21925509 17.1952035,2.16822176 17.4095889,2.13170654 C17.6244227,2.09255166 17.8347715,2.07407407 18.0415323,2.07407407 C18.3599708,2.07407407 18.6586751,2.09827091 18.9385421,2.15018412 C19.2179607,2.20121745 19.4534258,2.30108439 19.6480769,2.45286455 C19.8404855,2.60640447 19.9835586,2.82285617 20.072811,3.10573918 C20.1647546,3.38818225 20.1786582,3.75817387 20.1199041,4.2130744 L19.8346549,6.48933677 C19.8081931,6.71062784 19.8265818,6.84173069 19.888027,6.88264534 C19.9449871,6.92487982 20.0095719,6.94511718 20.0786416,6.94511718 C20.1472629,6.94511718 20.2293393,6.92136028 20.3257678,6.87032695 L19.9642729,8.50251354 C19.8346549,8.54342819 19.700552,8.57906353 19.564655,8.60282043 C19.426067,8.62877703 19.2722298,8.64197531 19.0995554,8.64197531 C18.4882432,8.64197531 18.058127,8.35953224 17.8092067,7.7946461 C17.6199377,8.05421216 17.3938912,8.26098512 17.1319643,8.41452505 C16.8700375,8.5663052 16.5574295,8.64197531 16.1963831,8.64197531 C15.9223466,8.64197531 15.6761174,8.61337905 15.461732,8.55970607 C15.2460012,8.5051532 15.0657022,8.41452505 14.9194896,8.28782161 C14.7728285,8.16155812 14.6615993,7.98866073 14.5853534,7.77440874 C14.5059681,7.55971682 14.4691907,7.29179185 14.4691907,6.96975395 C14.4691907,6.79421691 14.4952039,6.60988101 14.5521641,6.41982586 C14.6082272,6.23197042 14.6983767,6.04587475 14.823061,5.86373857 C14.9481939,5.68336215 15.1069646,5.51222453 15.3002703,5.35164553 C15.4940244,5.19282629 15.7276954,5.05336453 16.0030775,4.93502 C16.3479777,4.79159875 16.6834594,4.68689244 17.0086255,4.62398067 C17.3369311,4.55974907 17.6970805,4.52147407 18.0931104,4.50343643 L18.1307848,4.18843762 C18.1666652,3.9935431 18.1141901,3.85672099 17.9773961,3.77665146 C17.8388081,3.69746181 17.6804858,3.65566728 17.4992899,3.65566728 C17.0857683,3.65566728 16.7153033,3.71110003 16.3838581,3.81976582 C16.0537585,3.93019138 15.7411506,4.07713217 15.4482769,4.26366778 L15.7321805,2.75774468 Z" id="Fill-24" fill="#FEFEFE"></path>
                                        <polygon id="Fill-26" fill="#FEFEFE" points="24.9596976 5.29742116 26.3502749 8.64197531 24.1313721 8.64197531 23.3048175 6.58530707 22.0691915 8.64197531 20.3257678 8.64197531 22.5681347 5.18289366 21.4325629 2.41975309 23.5987823 2.41975309 24.2358536 3.94678647 25.1899109 2.41975309 26.8713541 2.41975309"></polygon>
                                        <g id="Group-30" transform="translate(105.073884, 11.407407)">
                                            <mask id="mask-4" fill="white">
                                                <use xlink:href="#path-3"></use>
                                            </mask>
                                            <g id="Clip-29"></g>
                                            <path d="M4.23615451,10.7710904 C4.01715697,10.7710904 3.86874541,10.7117674 3.75562685,10.5784022 C3.49319177,10.2715285 3.27283681,9.39461888 3.7072121,6.96594504 C4.30990781,3.59613222 5.09540313,3.16436798 5.71257802,3.16436798 C5.9537468,3.16436798 6.11256526,3.22592115 6.22930362,3.36285464 C6.48359415,3.66125368 6.69851943,4.50827877 6.27907579,6.85354361 C5.57864563,10.7710904 4.56781814,10.7710904 4.23615451,10.7710904 M8.9436967,1.43017443 C8.28217933,0.65317722 7.30573988,0.24282278 6.11935237,0.24282278 C3.12895,0.24282278 0.982864586,2.65187097 0.230852367,6.85354361 C-0.223431789,9.39907925 0.0607220456,11.3634281 1.05616542,12.5320462 C1.71180062,13.3023528 2.66878367,13.709585 3.8266653,13.709585 C6.78358459,13.709585 9.00025598,11.1885814 9.75498305,6.96594504 C10.1984078,4.48820709 9.91787378,2.57426045 8.9436967,1.43017443" id="Fill-28" fill="#FEFEFE" mask="url(#mask-4)"></path>
                                        </g>
                                        <path d="M100.119013,22.0958104 C102.638199,19.776274 104.009905,17.8079623 104.30649,16.0986389 C104.521336,14.8554947 104.292644,13.7822832 103.643641,12.9962307 C102.982578,12.1947298 101.907457,11.7530864 100.61615,11.7530864 C98.8768398,11.7530864 97.5699002,12.3219521 95.9561022,13.7818288 L95.7216035,13.9944719 L97.4711874,16.1268096 L97.7213194,15.8955375 C98.3252094,15.3357591 99.0452322,14.7632585 99.8090281,14.7632585 C100.186459,14.7632585 100.463391,14.8668538 100.63089,15.0704096 C100.821169,15.3012273 100.877896,15.6751702 100.795263,16.1527084 C100.498231,17.8670298 98.0777574,20.0984192 94.5348166,22.9200296 L94.4369971,22.9986348 L94.0497392,25.2345679 L103.288543,25.2345679 L103.842406,22.038106 L101.178054,22.038106 C100.877002,22.038106 100.497338,22.0621873 100.119013,22.0958104" id="Fill-31" fill="#FEFEFE"></path>
                                    </g>
                                </g>
                            </g>
                        </g>
                    </g>
                </g>
            </g>
        </g>
    </g>
</svg>